<svg xmlns="http://www.w3.org/2000/svg" width="1816" height="881.67" viewBox="0 0 1816 881.67"><title>logoOutlineBlack</title><path d="M286.41,366.78h145.2V396H321.21v89.6h102v28.8h-102v122h-34.8Z" transform="translate(-92 -62.03)" fill="none" stroke="#fff"/><path d="M516,366.78v269.6h-34.8V366.78Z" transform="translate(-92 -62.03)" fill="none" stroke="#fff"/><path d="M782,624.38c-15.6,5.6-46.4,14.8-82.8,14.8-40.8,0-74.4-10.4-100.8-35.6-23.2-22.4-37.6-58.4-37.6-100.4.4-80.4,55.6-139.2,146-139.2,31.2,0,55.6,6.8,67.2,12.4l-8.4,28.4c-14.4-6.4-32.4-11.6-59.6-11.6-65.6,0-108.4,40.8-108.4,108.4,0,68.4,41.2,108.8,104,108.8,22.8,0,38.4-3.2,46.4-7.2v-80.4h-54.8v-28H782Z" transform="translate(-92 -62.03)" fill="none" stroke="#fff"/><path d="M870,366.78v159.6c0,60.4,26.8,86,62.8,86,40,0,65.6-26.4,65.6-86V366.78h35.2V524c0,82.8-43.6,116.8-102,116.8-55.2,0-96.8-31.6-96.8-115.2V366.78Z" transform="translate(-92 -62.03)" fill="none" stroke="#fff"/><path d="M1094,370.38c17.6-3.6,42.8-5.6,66.8-5.6,37.2,0,61.2,6.8,78,22,13.6,12,21.2,30.4,21.2,51.2,0,35.6-22.4,59.2-50.8,68.8V508c20.8,7.2,33.2,26.4,39.6,54.4,8.8,37.6,15.2,63.6,20.8,74h-36c-4.4-7.6-10.4-30.8-18-64.4-8-37.2-22.4-51.2-54-52.4h-32.8v116.8H1094Zm34.8,122.8h35.6c37.2,0,60.8-20.4,60.8-51.2,0-34.8-25.2-50-62-50.4-16.8,0-28.8,1.6-34.4,3.2Z" transform="translate(-92 -62.03)" fill="none" stroke="#fff"/><path d="M1448.8,510H1344v97.2h116.8v29.2H1309.2V366.78h145.6V396H1344v85.2h104.8Z" transform="translate(-92 -62.03)" fill="none" stroke="#fff"/><path d="M1506,370.38a498.5,498.5,0,0,1,74-5.6c50,0,85.6,11.6,109.2,33.6,24,22,38,53.2,38,96.8,0,44-13.6,80-38.8,104.8-25.2,25.2-66.8,38.8-119.2,38.8a561.7,561.7,0,0,1-63.2-3.2Zm34.8,238.4c8.8,1.6,21.6,2,35.2,2,74.4,0,114.8-41.6,114.8-114.4.4-63.6-35.6-104-109.2-104-18,0-31.6,1.6-40.8,3.6Z" transform="translate(-92 -62.03)" fill="none" stroke="#fff"/><circle cx="908" cy="109.97" r="94.97" fill="none" stroke="#000" stroke-miterlimit="10" stroke-width="30"/><path d="M783.12,828H120a12,12,0,0,1-12-12V184a12,12,0,0,1,12-12H784" transform="translate(-92 -62.03)" fill="none" stroke="#000" stroke-miterlimit="10" stroke-width="32"/><path d="M783.12,828" transform="translate(-92 -62.03)" fill="none" stroke="#fff" stroke-miterlimit="10" stroke-width="32"/><path d="M1215.63,172H1880a12,12,0,0,1,12,12V816a12,12,0,0,1-12,12H1215.13" transform="translate(-92 -62.03)" fill="none" stroke="#000" stroke-miterlimit="10" stroke-width="32"/><line x1="792.3" y1="765.97" x2="1023.7" y2="765.97" fill="none" stroke="#000" stroke-miterlimit="10" stroke-width="32"/><line x1="908" y1="650.27" x2="908" y2="881.67" fill="none" stroke="#000" stroke-miterlimit="10" stroke-width="32"/></svg>