<svg xmlns="http://www.w3.org/2000/svg" xmlns:xlink="http://www.w3.org/1999/xlink" width="1816" height="1010.54" viewBox="0 0 1816 1010.54"><defs><linearGradient id="a" x1="591.88" y1="662.96" x2="591.88" y2="576.47" gradientUnits="userSpaceOnUse"><stop offset="0" stop-color="aqua"/><stop offset="0.11" stop-color="#05ffff"/><stop offset="0.24" stop-color="#14feff"/><stop offset="0.38" stop-color="#2cfeff"/><stop offset="0.53" stop-color="#4ffdff"/><stop offset="0.69" stop-color="#7afbff"/><stop offset="0.85" stop-color="#affaff"/><stop offset="1" stop-color="#e8f8ff"/></linearGradient></defs><title>Hero</title><path d="M237.66,405.44H209l-5.49,14.94h-6.66l23-62.1H227l22.86,62.1h-6.66Zm-1.89-5.22-12.42-34-12.42,34Z" transform="translate(-92 -62.03)" fill="#f2f2f2" stroke="#fff" stroke-width="6"/><path d="M330.27,388.6q-5.31,5-15.93,5H301.65v26.82h-6.3V357.46h19q10.53,0,15.89,5t5.35,13.14Q335.58,383.66,330.27,388.6Zm-1.17-13q0-6.3-3.51-9.54t-11.25-3.24H301.65v25.38h12.69Q329.1,388.15,329.1,375.56Z" transform="translate(-92 -62.03)" fill="#f2f2f2" stroke="#fff" stroke-width="6"/><path d="M357.81,353.77v66.6h-6.3v-66.6Z" transform="translate(-92 -62.03)" fill="#f2f2f2" stroke="#fff" stroke-width="6"/><path d="M377.65,382.44a21.59,21.59,0,0,1,8.37-8.82,23.68,23.68,0,0,1,12.1-3.1,22.05,22.05,0,0,1,12.1,3.24,18.87,18.87,0,0,1,7.33,8.28v-10.8h6.3v49.14h-6.3V409.48a19.74,19.74,0,0,1-7.42,8.33A21.81,21.81,0,0,1,398,421.1a23.24,23.24,0,0,1-12-3.15,21.82,21.82,0,0,1-8.37-8.91,30.83,30.83,0,0,1,0-26.6Zm37.48,2.93a17.34,17.34,0,0,0-6.61-6.93A18,18,0,0,0,399.3,376a18.69,18.69,0,0,0-9.36,2.34,16.58,16.58,0,0,0-6.52,6.79A22.09,22.09,0,0,0,381,395.71a22.43,22.43,0,0,0,2.39,10.58,16.74,16.74,0,0,0,6.52,6.93,18.4,18.4,0,0,0,9.36,2.38,18,18,0,0,0,9.23-2.43,17.33,17.33,0,0,0,6.61-6.93,23.64,23.64,0,0,0,0-20.88Z" transform="translate(-92 -62.03)" fill="#f2f2f2" stroke="#fff" stroke-width="6"/><path d="M451.86,376.54v30.51q0,4.5,1.71,6.21t6,1.71h5.76v5.4h-6.75q-6.66,0-9.9-3.1t-3.24-10.21V376.54h-6.84v-5.31h6.84V358.9h6.39v12.33h13.5v5.31Z" transform="translate(-92 -62.03)" fill="#f2f2f2" stroke="#fff" stroke-width="6"/><path d="M500.45,376.54H489v43.83h-6.3V376.54h-6.84v-5.31h6.84v-3.42q0-8,4.1-11.79t13.27-3.78v5.4q-6.12,0-8.59,2.34T489,367.81v3.42h11.43Z" transform="translate(-92 -62.03)" fill="#f2f2f2" stroke="#fff" stroke-width="6"/><path d="M524.8,418a22.43,22.43,0,0,1-8.73-8.82,26.94,26.94,0,0,1-3.2-13.36,26.65,26.65,0,0,1,3.24-13.37,22.66,22.66,0,0,1,8.82-8.82,25.28,25.28,0,0,1,12.51-3.1,25.54,25.54,0,0,1,12.56,3.1,22.28,22.28,0,0,1,8.82,8.82,29.27,29.27,0,0,1,0,26.69,22.41,22.41,0,0,1-8.91,8.87,25.8,25.8,0,0,1-12.6,3.1A25,25,0,0,1,524.8,418Zm21.46-4.59a16.83,16.83,0,0,0,6.71-6.66,21.61,21.61,0,0,0,2.57-10.94A21.93,21.93,0,0,0,553,384.87a16.56,16.56,0,0,0-6.66-6.66,19.47,19.47,0,0,0-18,0,16.27,16.27,0,0,0-6.62,6.66,25.4,25.4,0,0,0,0,21.87,16.34,16.34,0,0,0,6.57,6.66,18.57,18.57,0,0,0,9,2.21A18.84,18.84,0,0,0,546.26,413.4Z" transform="translate(-92 -62.03)" fill="#f2f2f2" stroke="#fff" stroke-width="6"/><path d="M593.38,372.85a20.34,20.34,0,0,1,10.49-2.52v6.57h-1.71q-6.84,0-11,3.69T587,392.92v27.45h-6.3V371.23H587V380A15.39,15.39,0,0,1,593.38,372.85Z" transform="translate(-92 -62.03)" fill="#f2f2f2" stroke="#fff" stroke-width="6"/><path d="M691.3,375.78q5.44,5.45,5.45,15.8v28.8h-6.21V392.29q0-8-3.87-12.24t-10.53-4.23a14.17,14.17,0,0,0-11.07,4.59q-4.14,4.59-4.14,13.32v26.64h-6.21V392.29q0-8-3.87-12.24t-10.62-4.23a14.17,14.17,0,0,0-11.07,4.59Q625,385,625,393.73v26.64h-6.3V371.23H625v8.46a16.1,16.1,0,0,1,6.66-7,19.59,19.59,0,0,1,9.63-2.39,20.45,20.45,0,0,1,11.21,3.06,17.26,17.26,0,0,1,7,9,16.61,16.61,0,0,1,6.79-9,19.73,19.73,0,0,1,10.94-3.1Q685.85,370.33,691.3,375.78Z" transform="translate(-92 -62.03)" fill="#f2f2f2" stroke="#fff" stroke-width="6"/><path d="M765.5,376.54H754.07v43.83h-6.3V376.54h-6.84v-5.31h6.84v-3.42q0-8,4.09-11.79t13.28-3.78v5.4q-6.12,0-8.6,2.34t-2.47,7.83v3.42H765.5Z" transform="translate(-92 -62.03)" fill="#f2f2f2" stroke="#fff" stroke-width="6"/><path d="M789.85,418a22.44,22.44,0,0,1-8.73-8.82,26.94,26.94,0,0,1-3.19-13.36,26.66,26.66,0,0,1,3.24-13.37,22.66,22.66,0,0,1,8.82-8.82,25.28,25.28,0,0,1,12.51-3.1,25.54,25.54,0,0,1,12.56,3.1,22.28,22.28,0,0,1,8.82,8.82,29.27,29.27,0,0,1,0,26.69,22.41,22.41,0,0,1-8.91,8.87,25.8,25.8,0,0,1-12.6,3.1A25,25,0,0,1,789.85,418Zm21.46-4.59a16.83,16.83,0,0,0,6.71-6.66,21.61,21.61,0,0,0,2.57-10.94,21.93,21.93,0,0,0-2.52-10.94,16.56,16.56,0,0,0-6.66-6.66,19.47,19.47,0,0,0-18,0,16.27,16.27,0,0,0-6.62,6.66,25.4,25.4,0,0,0,0,21.87,16.34,16.34,0,0,0,6.57,6.66,18.57,18.57,0,0,0,9,2.21A18.84,18.84,0,0,0,811.31,413.4Z" transform="translate(-92 -62.03)" fill="#f2f2f2" stroke="#fff" stroke-width="6"/><path d="M856.63,372.85a20.34,20.34,0,0,1,10.49-2.52v6.57H865.4q-6.84,0-11,3.69t-4.14,12.33v27.45H844V371.23h6.3V380A15.39,15.39,0,0,1,856.63,372.85Z" transform="translate(-92 -62.03)" fill="#f2f2f2" stroke="#fff" stroke-width="6"/><path d="M946,357.46v5.22H918.32v23.49h23.4v5.22h-23.4v29H912V357.46Z" transform="translate(-92 -62.03)" fill="#f2f2f2" stroke="#fff" stroke-width="6"/><path d="M961.7,360.62a4.52,4.52,0,0,1-1.35-3.33A4.38,4.38,0,0,1,961.7,354a4.67,4.67,0,0,1,6.48,0,4.38,4.38,0,0,1,1.35,3.29,4.52,4.52,0,0,1-1.35,3.33,4.56,4.56,0,0,1-6.48,0Zm6.39,10.62v49.14h-6.3V371.23Z" transform="translate(-92 -62.03)" fill="#f2f2f2" stroke="#fff" stroke-width="6"/><path d="M1025.24,375.78q5.58,5.45,5.58,15.8v28.8h-6.21V392.29q0-8-4-12.24t-10.93-4.23q-7.11,0-11.34,4.5t-4.23,13.23v26.82h-6.3V371.23h6.3v8.37a16.08,16.08,0,0,1,6.75-6.88,20.67,20.67,0,0,1,10-2.39Q1019.66,370.33,1025.24,375.78Z" transform="translate(-92 -62.03)" fill="#f2f2f2" stroke="#fff" stroke-width="6"/><path d="M1050.3,382.44a21.59,21.59,0,0,1,8.37-8.82,23.68,23.68,0,0,1,12.1-3.1,22.05,22.05,0,0,1,12.11,3.24,18.87,18.87,0,0,1,7.33,8.28v-10.8h6.3v49.14h-6.3V409.48a19.74,19.74,0,0,1-7.42,8.33,21.81,21.81,0,0,1-12.11,3.29,23.24,23.24,0,0,1-12-3.15,21.82,21.82,0,0,1-8.37-8.91,30.84,30.84,0,0,1,0-26.6Zm37.49,2.93a17.34,17.34,0,0,0-6.62-6.93,18,18,0,0,0-9.22-2.43,18.69,18.69,0,0,0-9.36,2.34,16.58,16.58,0,0,0-6.53,6.79,22.1,22.1,0,0,0-2.38,10.57,22.44,22.44,0,0,0,2.38,10.58,16.75,16.75,0,0,0,6.53,6.93,18.4,18.4,0,0,0,9.36,2.38,18,18,0,0,0,9.22-2.43,17.33,17.33,0,0,0,6.62-6.93,23.64,23.64,0,0,0,0-20.88Z" transform="translate(-92 -62.03)" fill="#f2f2f2" stroke="#fff" stroke-width="6"/><path d="M1153.76,375.78q5.58,5.45,5.58,15.8v28.8h-6.21V392.29q0-8-4-12.24t-10.93-4.23q-7.11,0-11.34,4.5t-4.23,13.23v26.82h-6.3V371.23h6.3v8.37a16.08,16.08,0,0,1,6.75-6.88,20.67,20.67,0,0,1,10-2.39Q1148.18,370.33,1153.76,375.78Z" transform="translate(-92 -62.03)" fill="#f2f2f2" stroke="#fff" stroke-width="6"/><path d="M1178.87,382.44a21.8,21.8,0,0,1,8.46-8.82,24.28,24.28,0,0,1,12.33-3.1q9.09,0,15,4.5a20.39,20.39,0,0,1,7.6,12.24h-6.75a13.82,13.82,0,0,0-5.44-8.32,17.32,17.32,0,0,0-10.4-3,17.72,17.72,0,0,0-8.91,2.25,15.78,15.78,0,0,0-6.25,6.71,23.67,23.67,0,0,0-2.29,10.94,24,24,0,0,0,2.29,11,15.71,15.71,0,0,0,6.25,6.75,17.71,17.71,0,0,0,8.91,2.25,17.32,17.32,0,0,0,10.4-3,13.85,13.85,0,0,0,5.44-8.42h6.75a20.61,20.61,0,0,1-7.65,12.15q-5.94,4.59-14.94,4.59a24.29,24.29,0,0,1-12.33-3.1,21.79,21.79,0,0,1-8.46-8.82,30.72,30.72,0,0,1,0-26.73Z" transform="translate(-92 -62.03)" fill="#f2f2f2" stroke="#fff" stroke-width="6"/><path d="M1239.17,360.62a4.52,4.52,0,0,1-1.35-3.33,4.38,4.38,0,0,1,1.35-3.29,4.67,4.67,0,0,1,6.48,0,4.38,4.38,0,0,1,1.35,3.29,4.52,4.52,0,0,1-1.35,3.33,4.56,4.56,0,0,1-6.48,0Zm6.39,10.62v49.14h-6.3V371.23Z" transform="translate(-92 -62.03)" fill="#f2f2f2" stroke="#fff" stroke-width="6"/><path d="M1265.4,382.44a21.59,21.59,0,0,1,8.37-8.82,23.68,23.68,0,0,1,12.1-3.1,22.05,22.05,0,0,1,12.11,3.24,18.87,18.87,0,0,1,7.33,8.28v-10.8h6.3v49.14h-6.3V409.48a19.74,19.74,0,0,1-7.42,8.33,21.81,21.81,0,0,1-12.11,3.29,23.24,23.24,0,0,1-12-3.15,21.82,21.82,0,0,1-8.37-8.91,30.84,30.84,0,0,1,0-26.6Zm37.49,2.93a17.34,17.34,0,0,0-6.62-6.93A18,18,0,0,0,1287,376a18.69,18.69,0,0,0-9.36,2.34,16.58,16.58,0,0,0-6.53,6.79,22.1,22.1,0,0,0-2.38,10.57,22.44,22.44,0,0,0,2.38,10.58,16.75,16.75,0,0,0,6.53,6.93,18.4,18.4,0,0,0,9.36,2.38,18,18,0,0,0,9.22-2.43,17.33,17.33,0,0,0,6.62-6.93,23.64,23.64,0,0,0,0-20.88Z" transform="translate(-92 -62.03)" fill="#f2f2f2" stroke="#fff" stroke-width="6"/><path d="M1337.71,353.77v66.6h-6.3v-66.6Z" transform="translate(-92 -62.03)" fill="#f2f2f2" stroke="#fff" stroke-width="6"/><path d="M207.51,523.25H230.1v5.13H201.21V465.46h6.3Z" transform="translate(-92 -62.03)" fill="#f2f2f2" stroke="#fff" stroke-width="6"/><path d="M244.41,468.62a4.53,4.53,0,0,1-1.35-3.33,4.38,4.38,0,0,1,1.35-3.29,4.67,4.67,0,0,1,6.48,0,4.38,4.38,0,0,1,1.35,3.29,4.52,4.52,0,0,1-1.35,3.33,4.56,4.56,0,0,1-6.48,0Zm6.39,10.62v49.14h-6.3V479.23Z" transform="translate(-92 -62.03)" fill="#f2f2f2" stroke="#fff" stroke-width="6"/><path d="M278.7,484.54v30.51q0,4.5,1.71,6.21t6,1.71h5.76v5.4h-6.75q-6.66,0-9.9-3.11t-3.24-10.21V484.54h-6.84v-5.31h6.84V466.9h6.39v12.33h13.5v5.31Z" transform="translate(-92 -62.03)" fill="#f2f2f2" stroke="#fff" stroke-width="6"/><path d="M352.23,506.23H311.46a19.77,19.77,0,0,0,2.7,9.54,15.88,15.88,0,0,0,6.39,6,18.7,18.7,0,0,0,8.64,2,17.35,17.35,0,0,0,10.31-3,13.94,13.94,0,0,0,5.53-8h6.66A20.81,20.81,0,0,1,344,524.55q-5.9,4.55-14.81,4.54a24.78,24.78,0,0,1-12.42-3.1,21.92,21.92,0,0,1-8.6-8.82,27.57,27.57,0,0,1-3.1-13.37,28.17,28.17,0,0,1,3.06-13.41,21.27,21.27,0,0,1,8.55-8.82,25.26,25.26,0,0,1,12.51-3.06,24,24,0,0,1,12.29,3.06,21.15,21.15,0,0,1,8.1,8.23,23.49,23.49,0,0,1,2.83,11.48Q352.41,504.52,352.23,506.23Zm-8.42-14.49a14.89,14.89,0,0,0-6.25-5.85,19.07,19.07,0,0,0-8.64-2,17.16,17.16,0,0,0-12,4.5q-5,4.5-5.49,12.69H346A17.47,17.47,0,0,0,343.81,491.75Z" transform="translate(-92 -62.03)" fill="#f2f2f2" stroke="#fff" stroke-width="6"/><path d="M382,480.85a20.33,20.33,0,0,1,10.48-2.52v6.57h-1.71q-6.84,0-11,3.69t-4.14,12.33v27.45h-6.3V479.23h6.3V488A15.39,15.39,0,0,1,382,480.85Z" transform="translate(-92 -62.03)" fill="#f2f2f2" stroke="#fff" stroke-width="6"/><path d="M407.44,490.44a21.59,21.59,0,0,1,8.37-8.82,23.68,23.68,0,0,1,12.1-3.1,22.05,22.05,0,0,1,12.1,3.24,18.87,18.87,0,0,1,7.33,8.28v-10.8h6.3v49.14h-6.3V517.48a19.74,19.74,0,0,1-7.42,8.33,21.81,21.81,0,0,1-12.1,3.29,23.23,23.23,0,0,1-12-3.15,21.82,21.82,0,0,1-8.37-8.91,30.83,30.83,0,0,1,0-26.6Zm37.48,2.93a17.34,17.34,0,0,0-6.61-6.93,18,18,0,0,0-9.23-2.43,18.69,18.69,0,0,0-9.36,2.34,16.58,16.58,0,0,0-6.52,6.79,22.09,22.09,0,0,0-2.39,10.57,22.43,22.43,0,0,0,2.39,10.58,16.74,16.74,0,0,0,6.52,6.93,18.4,18.4,0,0,0,9.36,2.38,18,18,0,0,0,9.23-2.43,17.33,17.33,0,0,0,6.61-6.93,23.64,23.64,0,0,0,0-20.88Z" transform="translate(-92 -62.03)" fill="#f2f2f2" stroke="#fff" stroke-width="6"/><path d="M473.64,490.44a21.8,21.8,0,0,1,8.46-8.82,24.28,24.28,0,0,1,12.33-3.1q9.09,0,15,4.5a20.38,20.38,0,0,1,7.6,12.24h-6.75a13.82,13.82,0,0,0-5.44-8.32,17.32,17.32,0,0,0-10.4-3,17.72,17.72,0,0,0-8.91,2.25,15.78,15.78,0,0,0-6.25,6.71A23.68,23.68,0,0,0,477,503.8a24,24,0,0,0,2.29,11,15.71,15.71,0,0,0,6.25,6.75,17.71,17.71,0,0,0,8.91,2.25,17.32,17.32,0,0,0,10.4-3,13.85,13.85,0,0,0,5.44-8.42H517a20.61,20.61,0,0,1-7.65,12.15q-5.94,4.59-14.94,4.59A24.29,24.29,0,0,1,482.1,526a21.8,21.8,0,0,1-8.46-8.82,30.72,30.72,0,0,1,0-26.73Z" transform="translate(-92 -62.03)" fill="#f2f2f2" stroke="#fff" stroke-width="6"/><path d="M574.53,479.23,545.37,551.5h-6.57l9.54-23.4-20.16-48.87h6.93l16.74,41.94L568,479.23Z" transform="translate(-92 -62.03)" fill="#f2f2f2" stroke="#fff" stroke-width="6"/><path d="M618.67,490.44a21.59,21.59,0,0,1,8.37-8.82,23.68,23.68,0,0,1,12.1-3.1,22.05,22.05,0,0,1,12.11,3.24,18.87,18.87,0,0,1,7.33,8.28v-10.8h6.3v49.14h-6.3V517.48a19.74,19.74,0,0,1-7.42,8.33,21.81,21.81,0,0,1-12.11,3.29,23.23,23.23,0,0,1-12-3.15,21.82,21.82,0,0,1-8.37-8.91,30.84,30.84,0,0,1,0-26.6Zm37.49,2.93a17.34,17.34,0,0,0-6.62-6.93,18,18,0,0,0-9.22-2.43,18.69,18.69,0,0,0-9.36,2.34,16.58,16.58,0,0,0-6.53,6.79A22.1,22.1,0,0,0,622,503.71a22.44,22.44,0,0,0,2.38,10.58,16.74,16.74,0,0,0,6.53,6.93,18.4,18.4,0,0,0,9.36,2.38,18,18,0,0,0,9.22-2.43,17.33,17.33,0,0,0,6.62-6.93,23.64,23.64,0,0,0,0-20.88Z" transform="translate(-92 -62.03)" fill="#f2f2f2" stroke="#fff" stroke-width="6"/><path d="M722.12,483.78q5.58,5.45,5.58,15.8v28.8h-6.21V500.29q0-8-4-12.24t-10.93-4.23q-7.11,0-11.34,4.5T691,501.55v26.82h-6.3V479.23H691v8.37a16.08,16.08,0,0,1,6.75-6.88,20.67,20.67,0,0,1,10-2.39Q716.54,478.33,722.12,483.78Z" transform="translate(-92 -62.03)" fill="#f2f2f2" stroke="#fff" stroke-width="6"/><path d="M747.23,490.44a21.88,21.88,0,0,1,8.42-8.82,23.68,23.68,0,0,1,12.11-3.1,22.21,22.21,0,0,1,11.7,3.15,19.28,19.28,0,0,1,7.65,8.19V461.77h6.3v66.6h-6.3v-11a18.93,18.93,0,0,1-7.38,8.42,21.87,21.87,0,0,1-12.06,3.29,23.4,23.4,0,0,1-12.1-3.15,21.82,21.82,0,0,1-8.37-8.91,28.3,28.3,0,0,1-3-13.32A27.71,27.71,0,0,1,747.23,490.44Zm37.44,2.93a17.34,17.34,0,0,0-6.62-6.93,18,18,0,0,0-9.22-2.43,18.69,18.69,0,0,0-9.36,2.34,16.58,16.58,0,0,0-6.53,6.79,22.1,22.1,0,0,0-2.38,10.57,22.44,22.44,0,0,0,2.38,10.58,16.74,16.74,0,0,0,6.53,6.93,18.4,18.4,0,0,0,9.36,2.38,18,18,0,0,0,9.22-2.43,17.33,17.33,0,0,0,6.62-6.93,23.64,23.64,0,0,0,0-20.88Z" transform="translate(-92 -62.03)" fill="#f2f2f2" stroke="#fff" stroke-width="6"/><path d="M851.4,526.84a17.88,17.88,0,0,1-7.42-6,15.83,15.83,0,0,1-2.88-8.64h6.66a12.65,12.65,0,0,0,4,8.05q3.6,3.47,10.53,3.46,6.39,0,10.13-3.28a10.61,10.61,0,0,0,3.73-8.33,9.84,9.84,0,0,0-2.07-6.53,12.68,12.68,0,0,0-5.13-3.69,79.55,79.55,0,0,0-8.46-2.66,73.66,73.66,0,0,1-10-3.33,15.88,15.88,0,0,1-6.3-5q-2.61-3.42-2.61-9.27a15.43,15.43,0,0,1,2.52-8.69,16.89,16.89,0,0,1,7.11-6,24.46,24.46,0,0,1,10.53-2.16q8.73,0,14.08,4.27A16.07,16.07,0,0,1,882,480h-6.84a11.32,11.32,0,0,0-4.23-6.88q-3.6-3-9.72-3a14.68,14.68,0,0,0-9.45,3A10,10,0,0,0,848,481.4a9.51,9.51,0,0,0,2.07,6.39,13.19,13.19,0,0,0,5.17,3.69,76.22,76.22,0,0,0,8.42,2.7,76.22,76.22,0,0,1,9.9,3.38,16.15,16.15,0,0,1,6.39,5.08q2.61,3.42,2.61,9.18a16.2,16.2,0,0,1-2.34,8.37,17.08,17.08,0,0,1-6.93,6.39,23.19,23.19,0,0,1-11,2.43A26.05,26.05,0,0,1,851.4,526.84Z" transform="translate(-92 -62.03)" fill="#aaf5ff" stroke="#fff" stroke-width="6"/><path d="M944.42,506.23H903.65a19.77,19.77,0,0,0,2.7,9.54,15.88,15.88,0,0,0,6.39,6,18.7,18.7,0,0,0,8.64,2,17.35,17.35,0,0,0,10.3-3,13.94,13.94,0,0,0,5.54-8h6.66a20.82,20.82,0,0,1-7.7,11.75q-5.9,4.55-14.8,4.54A24.79,24.79,0,0,1,909,526a21.92,21.92,0,0,1-8.59-8.82,27.58,27.58,0,0,1-3.1-13.37,28.17,28.17,0,0,1,3.06-13.41,21.27,21.27,0,0,1,8.55-8.82,25.27,25.27,0,0,1,12.51-3.06,24,24,0,0,1,12.28,3.06,21.15,21.15,0,0,1,8.1,8.23,23.49,23.49,0,0,1,2.83,11.48Q944.6,504.52,944.42,506.23ZM936,491.75a14.89,14.89,0,0,0-6.26-5.85,19.06,19.06,0,0,0-8.64-2,17.16,17.16,0,0,0-12,4.5q-5,4.5-5.49,12.69h34.56A17.47,17.47,0,0,0,936,491.75Z" transform="translate(-92 -62.03)" fill="#aaf5ff" stroke="#fff" stroke-width="6"/><path d="M961.7,490.44a21.8,21.8,0,0,1,8.46-8.82,24.28,24.28,0,0,1,12.33-3.1q9.09,0,15,4.5a20.39,20.39,0,0,1,7.6,12.24h-6.75a13.82,13.82,0,0,0-5.44-8.32,17.32,17.32,0,0,0-10.4-3,17.72,17.72,0,0,0-8.91,2.25,15.78,15.78,0,0,0-6.25,6.71A23.67,23.67,0,0,0,965,503.8a24,24,0,0,0,2.29,11,15.71,15.71,0,0,0,6.25,6.75,17.71,17.71,0,0,0,8.91,2.25,17.32,17.32,0,0,0,10.4-3,13.85,13.85,0,0,0,5.44-8.42h6.75a20.62,20.62,0,0,1-7.65,12.15q-5.94,4.59-14.94,4.59a24.29,24.29,0,0,1-12.33-3.1,21.8,21.8,0,0,1-8.46-8.82,30.72,30.72,0,0,1,0-26.73Z" transform="translate(-92 -62.03)" fill="#aaf5ff" stroke="#fff" stroke-width="6"/><path d="M1064.66,479.23v49.14h-6.3v-8.64a15.1,15.1,0,0,1-6.66,7,20.87,20.87,0,0,1-10.08,2.43q-8.82,0-14.4-5.44t-5.58-15.8V479.23h6.21v28q0,8,4,12.24t10.94,4.23q7.11,0,11.34-4.5t4.23-13.23V479.23Z" transform="translate(-92 -62.03)" fill="#aaf5ff" stroke="#fff" stroke-width="6"/><path d="M1097.1,480.85a20.34,20.34,0,0,1,10.49-2.52v6.57h-1.71q-6.84,0-11,3.69t-4.14,12.33v27.45h-6.3V479.23h6.3V488A15.39,15.39,0,0,1,1097.1,480.85Z" transform="translate(-92 -62.03)" fill="#aaf5ff" stroke="#fff" stroke-width="6"/><path d="M1122.35,468.62a4.52,4.52,0,0,1-1.35-3.33,4.38,4.38,0,0,1,1.35-3.29,4.67,4.67,0,0,1,6.48,0,4.38,4.38,0,0,1,1.35,3.29,4.52,4.52,0,0,1-1.35,3.33,4.56,4.56,0,0,1-6.48,0Zm6.39,10.62v49.14h-6.3V479.23Z" transform="translate(-92 -62.03)" fill="#aaf5ff" stroke="#fff" stroke-width="6"/><path d="M1156.64,484.54v30.51q0,4.5,1.71,6.21t6,1.71h5.76v5.4h-6.75q-6.66,0-9.9-3.11t-3.24-10.21V484.54h-6.84v-5.31h6.84V466.9h6.39v12.33h13.5v5.31Z" transform="translate(-92 -62.03)" fill="#aaf5ff" stroke="#fff" stroke-width="6"/><path d="M1226.38,479.23l-29.16,72.27h-6.57l9.54-23.4L1180,479.23H1187l16.74,41.94,16.2-41.94Z" transform="translate(-92 -62.03)" fill="#aaf5ff" stroke="#fff" stroke-width="6"/><path d="M220.56,592.54H209.13v43.83h-6.3V592.54H196v-5.31h6.84v-3.42q0-8,4.1-11.79t13.27-3.78v5.4q-6.12,0-8.59,2.34t-2.48,7.83v3.42h11.43Z" transform="translate(-92 -62.03)" fill="#f2f2f2" stroke="#fff" stroke-width="6"/><path d="M244.91,634a22.43,22.43,0,0,1-8.73-8.82A26.94,26.94,0,0,1,233,611.8a26.65,26.65,0,0,1,3.24-13.37,22.65,22.65,0,0,1,8.82-8.82,25.28,25.28,0,0,1,12.51-3.11,25.54,25.54,0,0,1,12.55,3.11,22.28,22.28,0,0,1,8.82,8.82,29.28,29.28,0,0,1,0,26.69A22.41,22.41,0,0,1,270,634a25.81,25.81,0,0,1-12.6,3.1A25,25,0,0,1,244.91,634Zm21.46-4.59a16.83,16.83,0,0,0,6.71-6.66,21.61,21.61,0,0,0,2.56-10.94,21.92,21.92,0,0,0-2.52-10.93,16.55,16.55,0,0,0-6.66-6.66,19.47,19.47,0,0,0-18,0,16.26,16.26,0,0,0-6.61,6.66,25.39,25.39,0,0,0,0,21.87,16.33,16.33,0,0,0,6.57,6.66,18.58,18.58,0,0,0,9,2.21A18.84,18.84,0,0,0,266.37,629.4Z" transform="translate(-92 -62.03)" fill="#f2f2f2" stroke="#fff" stroke-width="6"/><path d="M311.69,588.85a20.33,20.33,0,0,1,10.48-2.52v6.57h-1.71q-6.84,0-11,3.69t-4.14,12.33v27.45H299V587.23h6.3V596A15.39,15.39,0,0,1,311.69,588.85Z" transform="translate(-92 -62.03)" fill="#f2f2f2" stroke="#fff" stroke-width="6"/><circle cx="908" cy="109.97" r="94.97" fill="none" stroke="#fff" stroke-miterlimit="10" stroke-width="30"/><path d="M783.12,956.88H120c-6.6,0-12-6.46-12-14.36V186.36c0-7.9,5.4-14.36,12-14.36H784" transform="translate(-92 -62.03)" fill="none" stroke="#fff" stroke-miterlimit="10" stroke-width="32"/><path d="M783.12,828" transform="translate(-92 -62.03)" fill="none" stroke="#fff" stroke-miterlimit="10" stroke-width="32"/><path d="M1215.63,172H1880c6.6,0,12,6.46,12,14.36V942.52c0,7.9-5.4,14.36-12,14.36H1215.13" transform="translate(-92 -62.03)" fill="none" stroke="#fff" stroke-miterlimit="10" stroke-width="32"/><line x1="792.3" y1="894.84" x2="1023.7" y2="894.84" fill="none" stroke="#fff" stroke-miterlimit="10" stroke-width="32"/><line x1="908" y1="779.15" x2="908" y2="1010.54" fill="none" stroke="#fff" stroke-miterlimit="10" stroke-width="32"/><path d="M221.59,856.33a9.74,9.74,0,0,1-4.15,3.95,15.1,15.1,0,0,1-7.12,1.5h-5.85v13.4h-7v-34.9h12.85a15.54,15.54,0,0,1,6.9,1.4,9.76,9.76,0,0,1,4.27,3.85,11.3,11.3,0,0,1,.1,10.8Zm-7.28-1.53a4.88,4.88,0,0,0,1.4-3.72q0-5.1-5.7-5.1h-5.55v10.15H210A6.07,6.07,0,0,0,214.31,854.8Z" transform="translate(-92 -62.03)" fill="#e6e6e6"/><path d="M233,873.85a12.77,12.77,0,0,1-5-5,15.05,15.05,0,0,1-1.82-7.5,14.74,14.74,0,0,1,1.88-7.5,13,13,0,0,1,5.13-5,15.69,15.69,0,0,1,14.5,0,13,13,0,0,1,5.13,5,14.74,14.74,0,0,1,1.88,7.5,14.44,14.44,0,0,1-1.93,7.5,13.33,13.33,0,0,1-5.2,5,15.12,15.12,0,0,1-7.33,1.78A14.59,14.59,0,0,1,233,873.85Zm10.78-5.25a6.72,6.72,0,0,0,2.67-2.77,9.35,9.35,0,0,0,1-4.5,8.34,8.34,0,0,0-2.08-6.08,6.82,6.82,0,0,0-5.07-2.12,6.66,6.66,0,0,0-5,2.13,8.47,8.47,0,0,0-2,6.08,8.6,8.6,0,0,0,2,6.07,6.5,6.5,0,0,0,5,2.13A7.28,7.28,0,0,0,243.73,868.6Z" transform="translate(-92 -62.03)" fill="#e6e6e6"/><path d="M298.16,847.48l-8.1,27.7h-7.55l-5.05-19.35-5,19.35h-7.6l-8.15-27.7h7.1l4.9,21.1,5.3-21.1h7.4l5.2,21,4.9-21Z" transform="translate(-92 -62.03)" fill="#e6e6e6"/><path d="M327.51,863.43H307.26a6.88,6.88,0,0,0,2.1,4.7,6.47,6.47,0,0,0,4.55,1.7,5.72,5.72,0,0,0,5.55-3.35H327a12.62,12.62,0,0,1-4.6,6.58,13.43,13.43,0,0,1-8.35,2.58,14.44,14.44,0,0,1-7.17-1.78,12.48,12.48,0,0,1-5-5,15.4,15.4,0,0,1-1.77-7.5,15.69,15.69,0,0,1,1.75-7.55,12.22,12.22,0,0,1,4.9-5,15.73,15.73,0,0,1,14.33,0,12,12,0,0,1,4.85,4.83,14.6,14.6,0,0,1,1.73,7.17A16.58,16.58,0,0,1,327.51,863.43Zm-7-4.7a5.55,5.55,0,0,0-2-4.33,6.92,6.92,0,0,0-4.65-1.62,6.35,6.35,0,0,0-4.37,1.58,6.92,6.92,0,0,0-2.18,4.38Z" transform="translate(-92 -62.03)" fill="#e6e6e6"/><path d="M343.33,848.33a9.81,9.81,0,0,1,5-1.25v7.35h-1.85a7.09,7.09,0,0,0-5,1.55q-1.68,1.55-1.67,5.4v13.8h-7v-27.7h7v4.3A9.84,9.84,0,0,1,343.33,848.33Z" transform="translate(-92 -62.03)" fill="#e6e6e6"/><path d="M378.56,863.43H358.31a6.88,6.88,0,0,0,2.1,4.7,6.47,6.47,0,0,0,4.55,1.7,5.72,5.72,0,0,0,5.55-3.35h7.55a12.62,12.62,0,0,1-4.6,6.58,13.43,13.43,0,0,1-8.35,2.58,14.44,14.44,0,0,1-7.17-1.78,12.48,12.48,0,0,1-5-5,15.4,15.4,0,0,1-1.77-7.5,15.69,15.69,0,0,1,1.75-7.55,12.22,12.22,0,0,1,4.9-5,15.73,15.73,0,0,1,14.33,0,12,12,0,0,1,4.85,4.83,14.6,14.6,0,0,1,1.73,7.17A16.58,16.58,0,0,1,378.56,863.43Zm-7-4.7a5.55,5.55,0,0,0-2-4.33,6.92,6.92,0,0,0-4.65-1.62,6.35,6.35,0,0,0-4.37,1.58,6.92,6.92,0,0,0-2.18,4.38Z" transform="translate(-92 -62.03)" fill="#e6e6e6"/><path d="M383.73,853.78a12.07,12.07,0,0,1,11-6.75,11.77,11.77,0,0,1,5.15,1.18,10.3,10.3,0,0,1,3.9,3.13V838.18h7.1v37h-7.1v-4.1a9.48,9.48,0,0,1-3.65,3.3,11.44,11.44,0,0,1-5.45,1.25,11.9,11.9,0,0,1-6.4-1.8,12.53,12.53,0,0,1-4.57-5.08,16.29,16.29,0,0,1-1.68-7.53A16,16,0,0,1,383.73,853.78ZM402.86,857a7.06,7.06,0,0,0-2.7-2.8,7.22,7.22,0,0,0-3.65-1,7,7,0,0,0-6.27,3.72,8.7,8.7,0,0,0-1,4.33,9,9,0,0,0,1,4.38,7.37,7.37,0,0,0,2.7,2.88,6.86,6.86,0,0,0,3.58,1,7.22,7.22,0,0,0,3.65-1,7.06,7.06,0,0,0,2.7-2.8,10.07,10.07,0,0,0,0-8.75Z" transform="translate(-92 -62.03)" fill="#e6e6e6"/><path d="M440.38,848.28a11.49,11.49,0,0,1,5.43-1.25,12.12,12.12,0,0,1,6.42,1.75,12.33,12.33,0,0,1,4.55,5,16,16,0,0,1,1.67,7.47,16.3,16.3,0,0,1-1.67,7.53,12.6,12.6,0,0,1-4.55,5.08,11.87,11.87,0,0,1-6.42,1.8,11.48,11.48,0,0,1-5.43-1.23,10.53,10.53,0,0,1-3.72-3.17v4h-7v-37h7v13.35A10,10,0,0,1,440.38,848.28Zm9.9,8.63a7.11,7.11,0,0,0-2.7-2.77,7.23,7.23,0,0,0-3.62-1,7,7,0,0,0-3.58,1,7.24,7.24,0,0,0-2.7,2.83,9.74,9.74,0,0,0,0,8.7,7.23,7.23,0,0,0,2.7,2.83,7.06,7.06,0,0,0,7.2,0,7.42,7.42,0,0,0,2.7-2.85,9,9,0,0,0,1-4.4A8.71,8.71,0,0,0,450.28,856.9Z" transform="translate(-92 -62.03)" fill="#e6e6e6"/><path d="M490.06,847.48l-17.15,40.8h-7.45l6-13.8-11.1-27h7.85l7.15,19.35,7.25-19.35Z" transform="translate(-92 -62.03)" fill="#e6e6e6"/><path d="M527.11,868.53h-13.9l-2.3,6.65h-7.35l12.55-35h8.15l12.55,35h-7.4Zm-1.9-5.6-5.05-14.6-5,14.6Z" transform="translate(-92 -62.03)" fill="#e6e6e6"/><path d="M548.5,840.28v34.9h-7v-34.9Z" transform="translate(-92 -62.03)" fill="#e6e6e6"/><path d="M386.19,586.73v15.75h21.15v10H386.19v16.65H410v10.26H373.59V576.47H410v10.26Z" transform="translate(-92 -62.03)"/><path d="M445.86,627.77l12.6-38.25h13.41l-18.45,49.86h-15.3l-18.36-49.86h13.5Z" transform="translate(-92 -62.03)"/><path d="M528.57,618.23H492.12a12.39,12.39,0,0,0,3.78,8.46,11.65,11.65,0,0,0,8.19,3.06q7,0,10-6h13.59a22.7,22.7,0,0,1-8.28,11.83,24.17,24.17,0,0,1-15,4.63A26,26,0,0,1,491.44,637a22.46,22.46,0,0,1-8.91-9,27.7,27.7,0,0,1-3.2-13.5,28.23,28.23,0,0,1,3.15-13.59,22,22,0,0,1,8.82-9,28.31,28.31,0,0,1,25.78-.09,21.55,21.55,0,0,1,8.73,8.68,26.28,26.28,0,0,1,3.1,12.92A29.83,29.83,0,0,1,528.57,618.23Zm-12.69-8.46a10,10,0,0,0-3.51-7.79,12.44,12.44,0,0,0-8.37-2.92,11.43,11.43,0,0,0-7.87,2.83,12.46,12.46,0,0,0-3.92,7.88Z" transform="translate(-92 -62.03)"/><path d="M560.65,591a17.65,17.65,0,0,1,9-2.25V602h-3.33q-5.94,0-9,2.79t-3,9.72v24.84h-12.6V589.52h12.6v7.74A17.73,17.73,0,0,1,560.65,591Z" transform="translate(-92 -62.03)"/><path d="M629.37,589.52,598.5,663H585.09l10.8-24.84-20-48.6H590l12.87,34.83,13-34.83Z" transform="translate(-92 -62.03)"/><path d="M648.9,637a23,23,0,0,1-9-9,27.1,27.1,0,0,1-3.29-13.5,26.53,26.53,0,0,1,3.38-13.5,23.45,23.45,0,0,1,9.23-9,28.25,28.25,0,0,1,26.1,0,23.46,23.46,0,0,1,9.23,9,26.53,26.53,0,0,1,3.38,13.5,26,26,0,0,1-3.47,13.5,24,24,0,0,1-9.36,9,27.22,27.22,0,0,1-13.19,3.19A26.26,26.26,0,0,1,648.9,637Zm19.4-9.45a12.09,12.09,0,0,0,4.81-5,16.82,16.82,0,0,0,1.8-8.1q0-7.11-3.74-10.94a12.28,12.28,0,0,0-9.13-3.82,12,12,0,0,0-9,3.82q-3.65,3.83-3.65,10.94t3.55,10.93a11.7,11.7,0,0,0,9,3.83A13.1,13.1,0,0,0,668.29,627.54Z" transform="translate(-92 -62.03)"/><path d="M742.76,594.42q5.49,5.63,5.49,15.71v29.25h-12.6V611.84q0-5.94-3-9.13a10.52,10.52,0,0,0-8.1-3.2,10.78,10.78,0,0,0-8.23,3.2q-3,3.2-3,9.13v27.54h-12.6V589.52h12.6v6.21a17.41,17.41,0,0,1,6.44-5.08,19.91,19.91,0,0,1,8.59-1.85Q737.27,588.8,742.76,594.42Z" transform="translate(-92 -62.03)"/><path d="M809.81,618.23H773.36a12.39,12.39,0,0,0,3.78,8.46,11.65,11.65,0,0,0,8.19,3.06q7,0,10-6h13.59a22.7,22.7,0,0,1-8.28,11.83,24.17,24.17,0,0,1-15,4.63A26,26,0,0,1,772.69,637a22.46,22.46,0,0,1-8.91-9,27.7,27.7,0,0,1-3.2-13.5,28.23,28.23,0,0,1,3.15-13.59,22,22,0,0,1,8.82-9,28.31,28.31,0,0,1,25.78-.09,21.55,21.55,0,0,1,8.73,8.68,26.28,26.28,0,0,1,3.1,12.92A29.83,29.83,0,0,1,809.81,618.23Zm-12.69-8.46a10,10,0,0,0-3.51-7.79,12.44,12.44,0,0,0-8.37-2.92,11.43,11.43,0,0,0-7.87,2.83,12.46,12.46,0,0,0-3.92,7.88Z" transform="translate(-92 -62.03)"/><path d="M386.19,586.73v15.75h21.15v10H386.19v16.65H410v10.26H373.59V576.47H410v10.26Z" transform="translate(-92 -62.03)" fill="url(#a)"/><path d="M445.86,627.77l12.6-38.25h13.41l-18.45,49.86h-15.3l-18.36-49.86h13.5Z" transform="translate(-92 -62.03)" fill="url(#a)"/><path d="M528.57,618.23H492.12a12.39,12.39,0,0,0,3.78,8.46,11.65,11.65,0,0,0,8.19,3.06q7,0,10-6h13.59a22.7,22.7,0,0,1-8.28,11.83,24.17,24.17,0,0,1-15,4.63A26,26,0,0,1,491.44,637a22.46,22.46,0,0,1-8.91-9,27.7,27.7,0,0,1-3.2-13.5,28.23,28.23,0,0,1,3.15-13.59,22,22,0,0,1,8.82-9,28.31,28.31,0,0,1,25.78-.09,21.55,21.55,0,0,1,8.73,8.68,26.28,26.28,0,0,1,3.1,12.92A29.83,29.83,0,0,1,528.57,618.23Zm-12.69-8.46a10,10,0,0,0-3.51-7.79,12.44,12.44,0,0,0-8.37-2.92,11.43,11.43,0,0,0-7.87,2.83,12.46,12.46,0,0,0-3.92,7.88Z" transform="translate(-92 -62.03)" fill="url(#a)"/><path d="M560.65,591a17.65,17.65,0,0,1,9-2.25V602h-3.33q-5.94,0-9,2.79t-3,9.72v24.84h-12.6V589.52h12.6v7.74A17.73,17.73,0,0,1,560.65,591Z" transform="translate(-92 -62.03)" fill="url(#a)"/><path d="M629.37,589.52,598.5,663H585.09l10.8-24.84-20-48.6H590l12.87,34.83,13-34.83Z" transform="translate(-92 -62.03)" fill="url(#a)"/><path d="M648.9,637a23,23,0,0,1-9-9,27.1,27.1,0,0,1-3.29-13.5,26.53,26.53,0,0,1,3.38-13.5,23.45,23.45,0,0,1,9.23-9,28.25,28.25,0,0,1,26.1,0,23.46,23.46,0,0,1,9.23,9,26.53,26.53,0,0,1,3.38,13.5,26,26,0,0,1-3.47,13.5,24,24,0,0,1-9.36,9,27.22,27.22,0,0,1-13.19,3.19A26.26,26.26,0,0,1,648.9,637Zm19.4-9.45a12.09,12.09,0,0,0,4.81-5,16.82,16.82,0,0,0,1.8-8.1q0-7.11-3.74-10.94a12.28,12.28,0,0,0-9.13-3.82,12,12,0,0,0-9,3.82q-3.65,3.83-3.65,10.94t3.55,10.93a11.7,11.7,0,0,0,9,3.83A13.1,13.1,0,0,0,668.29,627.54Z" transform="translate(-92 -62.03)" fill="url(#a)"/><path d="M742.76,594.42q5.49,5.63,5.49,15.71v29.25h-12.6V611.84q0-5.94-3-9.13a10.52,10.52,0,0,0-8.1-3.2,10.78,10.78,0,0,0-8.23,3.2q-3,3.2-3,9.13v27.54h-12.6V589.52h12.6v6.21a17.41,17.41,0,0,1,6.44-5.08,19.91,19.91,0,0,1,8.59-1.85Q737.27,588.8,742.76,594.42Z" transform="translate(-92 -62.03)" fill="url(#a)"/><path d="M809.81,618.23H773.36a12.39,12.39,0,0,0,3.78,8.46,11.65,11.65,0,0,0,8.19,3.06q7,0,10-6h13.59a22.7,22.7,0,0,1-8.28,11.83,24.17,24.17,0,0,1-15,4.63A26,26,0,0,1,772.69,637a22.46,22.46,0,0,1-8.91-9,27.7,27.7,0,0,1-3.2-13.5,28.23,28.23,0,0,1,3.15-13.59,22,22,0,0,1,8.82-9,28.31,28.31,0,0,1,25.78-.09,21.55,21.55,0,0,1,8.73,8.68,26.28,26.28,0,0,1,3.1,12.92A29.83,29.83,0,0,1,809.81,618.23Zm-12.69-8.46a10,10,0,0,0-3.51-7.79,12.44,12.44,0,0,0-8.37-2.92,11.43,11.43,0,0,0-7.87,2.83,12.46,12.46,0,0,0-3.92,7.88Z" transform="translate(-92 -62.03)" fill="url(#a)"/></svg>